<svg width="19" height="20" viewBox="0 0 19 20" fill="none" xmlns="http://www.w3.org/2000/svg">
<g id="twemoji:flag-kuwait" clip-path="url(#clip0_1132_1813)">
<path id="Vector" d="M16.8889 3.22095H2.11111C1.55121 3.22095 1.01424 3.44337 0.61833 3.83928C0.22242 4.23519 0 4.77216 0 5.33206L0 7.70706H19V5.33206C19 4.77216 18.7776 4.23519 18.3817 3.83928C17.9858 3.44337 17.4488 3.22095 16.8889 3.22095Z" fill="#007A3D"/>
<path id="Vector_2" d="M0 14.832C0 15.3919 0.22242 15.9289 0.61833 16.3248C1.01424 16.7207 1.55121 16.9431 2.11111 16.9431H16.8889C17.4488 16.9431 17.9858 16.7207 18.3817 16.3248C18.7776 15.9289 19 15.3919 19 14.832V12.457H0V14.832Z" fill="#CE1126"/>
<path id="Vector_3" d="M0 7.70703H19V12.457H0V7.70703Z" fill="#EEEEEE"/>
<path id="Vector_4" d="M0.635973 3.82153C0.43446 4.01807 0.274364 4.253 0.165134 4.51243C0.0559044 4.77186 -0.000244807 5.05054 8.0229e-07 5.33203V14.832C8.0229e-07 15.4242 0.243834 15.9588 0.635973 16.3425L4.75 12.457V7.70703L0.635973 3.82153Z" fill="#141414"/>
</g>
<defs>
<clipPath id="clip0_1132_1813">
<rect width="19" height="19" fill="white" transform="translate(0 0.582031)"/>
</clipPath>
</defs>
</svg>
