<svg width="22" height="21" viewBox="0 0 22 21" fill="none" xmlns="http://www.w3.org/2000/svg">
<path id="Vector" d="M6.55556 6.58824H15.4444M6.55556 11.0588H13.2222M17.6667 1C18.5507 1 19.3986 1.35326 20.0237 1.98205C20.6488 2.61085 21 3.46369 21 4.35294V13.2941C21 14.1834 20.6488 15.0362 20.0237 15.665C19.3986 16.2938 18.5507 16.6471 17.6667 16.6471H12.1111L6.55556 20V16.6471H4.33333C3.44928 16.6471 2.60143 16.2938 1.97631 15.665C1.35119 15.0362 1 14.1834 1 13.2941V4.35294C1 3.46369 1.35119 2.61085 1.97631 1.98205C2.60143 1.35326 3.44928 1 4.33333 1H17.6667Z" stroke="black" stroke-width="1.5" stroke-linecap="round" stroke-linejoin="round"/>
</svg>
