<svg width="25" height="24" viewBox="0 0 25 24" fill="none" xmlns="http://www.w3.org/2000/svg">
<g id="mdi-light:email">
<path id="Vector" d="M6 5H19C19.7956 5 20.5587 5.31607 21.1213 5.87868C21.6839 6.44129 22 7.20435 22 8V17C22 17.7956 21.6839 18.5587 21.1213 19.1213C20.5587 19.6839 19.7956 20 19 20H6C5.20435 20 4.44129 19.6839 3.87868 19.1213C3.31607 18.5587 3 17.7956 3 17V8C3 7.20435 3.31607 6.44129 3.87868 5.87868C4.44129 5.31607 5.20435 5 6 5ZM6 6C5.5 6 5.06 6.17 4.72 6.47L12.5 11.5L20.28 6.47C19.94 6.17 19.5 6 19 6H6ZM12.5 12.71L4.13 7.28C4.05 7.5 4 7.75 4 8V17C4 17.5304 4.21071 18.0391 4.58579 18.4142C4.96086 18.7893 5.46957 19 6 19H19C19.5304 19 20.0391 18.7893 20.4142 18.4142C20.7893 18.0391 21 17.5304 21 17V8C21 7.75 20.95 7.5 20.87 7.28L12.5 12.71Z" fill="black"/>
</g>
</svg>
