<svg width="91" height="87" viewBox="0 0 91 87" fill="none" xmlns="http://www.w3.org/2000/svg">
<path fill-rule="evenodd" clip-rule="evenodd" d="M18.2741 1.07294L69.5933 10.1961C70.8278 10.4157 71.9252 11.1199 72.6441 12.1538C73.363 13.1878 73.6446 14.4668 73.427 15.7097L67.8856 47.4009L80.0083 34.8732L82.7674 37.549L66.7219 54.0559L61.7053 82.7455C61.5129 83.846 60.9421 84.8432 60.0928 85.5627C59.2435 86.2821 58.1699 86.6777 57.06 86.6804C56.7812 86.6809 56.5029 86.6556 56.2286 86.605L4.90547 77.4818C3.67096 77.2622 2.57361 76.558 1.8547 75.5241C1.13579 74.4902 0.854186 73.2111 1.0718 71.9682L12.7935 4.93245C12.9014 4.31667 13.1289 3.72833 13.4628 3.20107C13.7967 2.6738 14.2305 2.21794 14.7395 1.85952C15.2484 1.50111 15.8226 1.24716 16.429 1.11219C17.0355 0.97723 17.6625 0.963891 18.2741 1.07294ZM63.9784 51.4387L47.2268 68.7499L44.5465 74.1981L49.909 71.3523L62.8186 58.0715L58.6005 82.1941C58.5284 82.6086 58.2957 82.9773 57.9536 83.2191C57.6115 83.4608 57.188 83.5559 56.7763 83.4833L5.45314 74.3601C5.04215 74.2866 4.67691 74.0519 4.43758 73.7076C4.19825 73.3633 4.10438 72.9374 4.17656 72.5235L15.8982 5.48778C15.9703 5.07329 16.203 4.70461 16.5451 4.46285C16.8873 4.22109 17.3108 4.12605 17.7225 4.19863L69.0456 13.3218C69.4566 13.3954 69.8219 13.63 70.0612 13.9743C70.3005 14.3186 70.3944 14.7445 70.3222 15.1584L63.9784 51.4387ZM58.8306 23.8188C59.1137 23.5795 59.3042 23.2477 59.3689 22.8814C59.4052 22.6761 59.4009 22.4657 59.3564 22.2621C59.3119 22.0585 59.228 21.8657 59.1094 21.6948C58.9909 21.5239 58.84 21.3781 58.6655 21.2659C58.491 21.1537 58.2962 21.0772 58.0923 21.0409L25.3898 15.2258C24.9781 15.1527 24.5544 15.2472 24.2119 15.4886C23.8694 15.73 23.6362 16.0985 23.5636 16.513C23.491 16.9275 23.5849 17.354 23.8247 17.6988C24.0644 18.0436 24.4304 18.2784 24.8422 18.3515L57.5446 24.1666C57.6357 24.1823 57.728 24.1903 57.8204 24.1904C58.19 24.1896 58.5476 24.0581 58.8306 23.8188ZM56.6474 36.3213C56.9314 36.0812 57.1221 35.7479 57.1861 35.3802C57.2585 34.968 57.1662 34.5437 56.9293 34.1997C56.6924 33.8557 56.3301 33.6199 55.9213 33.5436L23.2188 27.7286C23.015 27.6924 22.806 27.6969 22.6039 27.742C22.4018 27.7871 22.2105 27.8719 22.0409 27.9914C21.8714 28.1109 21.7268 28.2629 21.6156 28.4387C21.5044 28.6144 21.4286 28.8105 21.3926 29.0157C21.3567 29.221 21.3612 29.4313 21.406 29.6348C21.4508 29.8383 21.535 30.0309 21.6537 30.2016C21.7724 30.3723 21.9234 30.5178 22.098 30.6298C22.2725 30.7418 22.4673 30.8181 22.6712 30.8543L55.3579 36.6654C55.4486 36.6842 55.541 36.6935 55.6337 36.6931C56.0045 36.6931 56.3635 36.5615 56.6474 36.3213ZM38.1281 45.9141C38.4119 45.6748 38.603 45.3424 38.6678 44.9754H38.652C38.7256 44.5626 38.6339 44.1373 38.3969 43.7924C38.1599 43.4475 37.7969 43.2111 37.3873 43.1349L21.04 40.2313C20.8322 40.1845 20.6171 40.1806 20.4077 40.2198C20.1983 40.259 19.999 40.3406 19.8218 40.4595C19.6446 40.5784 19.4932 40.7323 19.3767 40.9117C19.2602 41.0912 19.181 41.2926 19.1439 41.5038C19.1069 41.7149 19.1128 41.9314 19.1611 42.1402C19.2095 42.349 19.2994 42.5457 19.4255 42.7186C19.5515 42.8914 19.711 43.0368 19.8944 43.1458C20.0777 43.2549 20.2811 43.3254 20.4923 43.3531L36.8396 46.2606C36.9307 46.2762 37.023 46.2842 37.1154 46.2844C37.4857 46.2845 37.8442 46.1535 38.1281 45.9141ZM84.0232 30.7334L86.699 27.9744C87.054 27.6087 87.5396 27.3989 88.0491 27.3911C88.5587 27.3833 89.0505 27.5781 89.4164 27.9328C89.7822 28.2877 89.992 28.7733 89.9998 29.2829C90.0076 29.7925 89.8127 30.2843 89.458 30.6502L86.7823 33.4104L84.0232 30.7334Z" fill="black"/>
<path d="M69.5933 10.1961L69.6371 9.95001L69.6371 9.95001L69.5933 10.1961ZM18.2741 1.07294L18.2302 1.31906L18.2303 1.31908L18.2741 1.07294ZM72.6441 12.1538L72.8493 12.0111L72.8493 12.0111L72.6441 12.1538ZM73.427 15.7097L73.1807 15.6666L73.1807 15.6667L73.427 15.7097ZM67.8856 47.4009L67.6393 47.3579C67.6204 47.466 67.6743 47.5739 67.7721 47.6237C67.8699 47.6736 67.9889 47.6537 68.0652 47.5748L67.8856 47.4009ZM80.0083 34.8732L80.1824 34.6937C80.1348 34.6475 80.0707 34.6222 80.0044 34.6232C79.938 34.6243 79.8748 34.6516 79.8287 34.6993L80.0083 34.8732ZM82.7674 37.549L82.9466 37.7232C82.9929 37.6757 83.0183 37.6116 83.0173 37.5453C83.0164 37.4789 82.989 37.4157 82.9414 37.3695L82.7674 37.549ZM66.7219 54.0559L66.5426 53.8816C66.5076 53.9177 66.4843 53.9634 66.4756 54.0128L66.7219 54.0559ZM61.7053 82.7455L61.4591 82.7024L61.459 82.7024L61.7053 82.7455ZM60.0928 85.5627L60.2544 85.7534L60.2544 85.7534L60.0928 85.5627ZM57.06 86.6804L57.0604 86.9304L57.0606 86.9304L57.06 86.6804ZM56.2286 86.605L56.274 86.3592L56.2724 86.3589L56.2286 86.605ZM4.90547 77.4818L4.86169 77.7279L4.86172 77.7279L4.90547 77.4818ZM1.8547 75.5241L2.05996 75.3814L2.05996 75.3814L1.8547 75.5241ZM1.0718 71.9682L1.31805 72.0113L1.31806 72.0113L1.0718 71.9682ZM12.7935 4.93245L12.5472 4.88928L12.5472 4.88939L12.7935 4.93245ZM13.4628 3.20107L13.2516 3.06731L13.2516 3.06731L13.4628 3.20107ZM14.7395 1.85952L14.8834 2.06393L14.8834 2.06392L14.7395 1.85952ZM16.429 1.11219L16.4833 1.35623L16.4833 1.35623L16.429 1.11219ZM63.9784 51.4387L64.158 51.6125C64.1928 51.5766 64.216 51.531 64.2246 51.4817L63.9784 51.4387ZM47.2268 68.7499L47.0471 68.576C47.029 68.5947 47.0139 68.6161 47.0024 68.6395L47.2268 68.7499ZM44.5465 74.1981L44.3222 74.0878C44.2743 74.1851 44.2946 74.3021 44.3724 74.3776C44.4503 74.4531 44.5679 74.4698 44.6637 74.419L44.5465 74.1981ZM49.909 71.3523L50.0262 71.5732C50.0491 71.561 50.0701 71.5452 50.0882 71.5266L49.909 71.3523ZM62.8186 58.0715L63.0648 58.1145C63.0837 58.0065 63.03 57.8987 62.9323 57.8488C62.8346 57.7989 62.7158 57.8186 62.6393 57.8972L62.8186 58.0715ZM58.6005 82.1941L58.3543 82.1511L58.3542 82.1513L58.6005 82.1941ZM57.9536 83.2191L58.0979 83.4232L58.0979 83.4232L57.9536 83.2191ZM56.7763 83.4833L56.7325 83.7294L56.7329 83.7295L56.7763 83.4833ZM5.45314 74.3601L5.40912 74.6062L5.40938 74.6062L5.45314 74.3601ZM4.43758 73.7076L4.2323 73.8503L4.2323 73.8503L4.43758 73.7076ZM4.17656 72.5235L3.9303 72.4805L3.93028 72.4806L4.17656 72.5235ZM15.8982 5.48778L16.1445 5.53084L16.1445 5.53063L15.8982 5.48778ZM17.7225 4.19863L17.7662 3.95249L17.7659 3.95243L17.7225 4.19863ZM69.0456 13.3218L69.0897 13.0757L69.0894 13.0757L69.0456 13.3218ZM70.0612 13.9743L70.2665 13.8316L70.2665 13.8316L70.0612 13.9743ZM70.3222 15.1584L70.5685 15.2014L70.5685 15.2013L70.3222 15.1584ZM59.3689 22.8814L59.1227 22.8378L59.1227 22.8379L59.3689 22.8814ZM58.8306 23.8188L58.6692 23.6279L58.6692 23.6279L58.8306 23.8188ZM59.3564 22.2621L59.6007 22.2087L59.6007 22.2087L59.3564 22.2621ZM59.1094 21.6948L58.904 21.8373L58.904 21.8373L59.1094 21.6948ZM58.6655 21.2659L58.5303 21.4762L58.5303 21.4762L58.6655 21.2659ZM58.0923 21.0409L58.1362 20.7948L58.136 20.7947L58.0923 21.0409ZM25.3898 15.2258L25.4336 14.9797L25.4335 14.9797L25.3898 15.2258ZM24.2119 15.4886L24.3559 15.693L24.3559 15.693L24.2119 15.4886ZM23.5636 16.513L23.3174 16.4698L23.3174 16.4698L23.5636 16.513ZM23.8247 17.6988L23.6194 17.8416L23.6194 17.8416L23.8247 17.6988ZM24.8422 18.3515L24.8859 18.1054L24.8859 18.1054L24.8422 18.3515ZM57.5446 24.1666L57.5008 24.4127L57.5019 24.4129L57.5446 24.1666ZM57.8204 24.1904L57.8203 24.4404L57.8209 24.4404L57.8204 24.1904ZM57.1861 35.3802L56.9398 35.3369L56.9398 35.3373L57.1861 35.3802ZM56.9293 34.1997L57.1352 34.0579L57.1352 34.0579L56.9293 34.1997ZM55.9213 33.5436L55.9672 33.2979L55.9651 33.2975L55.9213 33.5436ZM23.2188 27.7286L23.2626 27.4824L23.2626 27.4824L23.2188 27.7286ZM22.0409 27.9914L22.185 28.1957L22.185 28.1957L22.0409 27.9914ZM21.6156 28.4387L21.4043 28.305L21.4043 28.305L21.6156 28.4387ZM21.3926 29.0157L21.1464 28.9726L21.1464 28.9726L21.3926 29.0157ZM21.406 29.6348L21.1619 29.6885L21.1619 29.6886L21.406 29.6348ZM21.6537 30.2016L21.8589 30.0589L21.8589 30.0589L21.6537 30.2016ZM22.098 30.6298L21.963 30.8402L21.963 30.8402L22.098 30.6298ZM22.6712 30.8543L22.7149 30.6081L22.7149 30.6081L22.6712 30.8543ZM55.3579 36.6654L55.4088 36.4205L55.4016 36.4192L55.3579 36.6654ZM55.6337 36.6931L55.6337 36.4431L55.6326 36.4431L55.6337 36.6931ZM38.6678 44.9754L38.914 45.0189C38.9269 44.9461 38.9068 44.8713 38.8593 44.8147C38.8118 44.7581 38.7417 44.7254 38.6678 44.7254V44.9754ZM38.652 44.9754L38.4059 44.9315C38.3929 45.0044 38.4129 45.0792 38.4604 45.1359C38.5079 45.1926 38.5781 45.2254 38.652 45.2254V44.9754ZM38.3969 43.7924L38.1909 43.934L38.1909 43.934L38.3969 43.7924ZM37.3873 43.1349L37.433 42.8891L37.431 42.8888L37.3873 43.1349ZM21.04 40.2313L20.985 40.4755L20.9963 40.4775L21.04 40.2313ZM20.4077 40.2198L20.3617 39.9741L20.3617 39.9741L20.4077 40.2198ZM19.8218 40.4595L19.9611 40.6671L19.9611 40.6671L19.8218 40.4595ZM19.3767 40.9117L19.167 40.7756L19.167 40.7756L19.3767 40.9117ZM19.1439 41.5038L19.3902 41.547L19.3902 41.547L19.1439 41.5038ZM19.1611 42.1402L18.9176 42.1966L18.9176 42.1966L19.1611 42.1402ZM19.4255 42.7186L19.2235 42.8659L19.2235 42.8659L19.4255 42.7186ZM19.8944 43.1458L19.7666 43.3607L19.7666 43.3607L19.8944 43.1458ZM20.4923 43.3531L20.5362 43.1067L20.5248 43.1052L20.4923 43.3531ZM36.8396 46.2606L36.7958 46.5067L36.7974 46.507L36.8396 46.2606ZM37.1154 46.2844L37.1148 46.5344L37.1153 46.5344L37.1154 46.2844ZM86.699 27.9744L86.5196 27.8003L86.5196 27.8004L86.699 27.9744ZM84.0232 30.7334L83.8438 30.5594C83.7477 30.6585 83.7501 30.8167 83.8491 30.9129L84.0232 30.7334ZM88.0491 27.3911L88.0453 27.1411L88.0453 27.1411L88.0491 27.3911ZM89.4164 27.9328L89.5906 27.7534L89.5904 27.7533L89.4164 27.9328ZM89.458 30.6502L89.6375 30.8242L89.6376 30.8242L89.458 30.6502ZM86.7823 33.4104L86.6082 33.5899C86.6558 33.6361 86.7198 33.6614 86.7861 33.6604C86.8524 33.6594 86.9156 33.6321 86.9618 33.5845L86.7823 33.4104ZM69.6371 9.95001L18.3178 0.8268L18.2303 1.31908L69.5495 10.4423L69.6371 9.95001ZM72.8493 12.0111C72.0927 10.9229 70.9373 10.1813 69.6371 9.95001L69.5495 10.4423C70.7183 10.6502 71.7577 11.3169 72.4388 12.2966L72.8493 12.0111ZM73.6732 15.7529C73.9022 14.4452 73.606 13.0993 72.8493 12.0111L72.4388 12.2966C73.12 13.2763 73.387 14.4885 73.1807 15.6666L73.6732 15.7529ZM68.1318 47.444L73.6732 15.7528L73.1807 15.6667L67.6393 47.3579L68.1318 47.444ZM79.8287 34.6993L67.7059 47.2271L68.0652 47.5748L80.188 35.047L79.8287 34.6993ZM82.9414 37.3695L80.1824 34.6937L79.8343 35.0526L82.5933 37.7284L82.9414 37.3695ZM66.9012 54.2301L82.9466 37.7232L82.5881 37.3747L66.5426 53.8816L66.9012 54.2301ZM61.9516 82.7885L66.9681 54.099L66.4756 54.0128L61.4591 82.7024L61.9516 82.7885ZM60.2544 85.7534C61.1485 84.996 61.7492 83.9464 61.9516 82.7885L61.459 82.7024C61.2767 83.7455 60.7357 84.6905 59.9312 85.3719L60.2544 85.7534ZM57.0606 86.9304C58.2296 86.9276 59.3603 86.5108 60.2544 85.7534L59.9312 85.3719C59.1268 86.0533 58.1102 86.4279 57.0594 86.4304L57.0606 86.9304ZM56.1832 86.8508C56.4726 86.9043 56.7662 86.9309 57.0604 86.9304L57.0595 86.4304C56.7961 86.4308 56.5332 86.407 56.274 86.3592L56.1832 86.8508ZM4.86172 77.7279L56.1849 86.8511L56.2724 86.3589L4.94923 77.2357L4.86172 77.7279ZM1.64944 75.6668C2.40611 76.755 3.56143 77.4966 4.86169 77.7279L4.94925 77.2357C3.78049 77.0278 2.74111 76.361 2.05996 75.3814L1.64944 75.6668ZM0.825543 71.9251C0.59659 73.2328 0.892822 74.5786 1.64944 75.6668L2.05996 75.3814C1.37877 74.4017 1.11178 73.1894 1.31805 72.0113L0.825543 71.9251ZM12.5472 4.88939L0.825534 71.9251L1.31806 72.0113L13.0397 4.97552L12.5472 4.88939ZM13.2516 3.06731C12.9002 3.62224 12.6608 4.24136 12.5472 4.88928L13.0397 4.97563C13.142 4.39198 13.3576 3.83443 13.674 3.33482L13.2516 3.06731ZM14.5955 1.65512C14.0597 2.03249 13.603 2.51238 13.2516 3.06731L13.674 3.33482C13.9904 2.83522 14.4014 2.40339 14.8834 2.06393L14.5955 1.65512ZM16.3747 0.868164C15.736 1.01031 15.1314 1.27775 14.5955 1.65512L14.8834 2.06392C15.3655 1.72446 15.9091 1.48401 16.4833 1.35623L16.3747 0.868164ZM18.318 0.826822C17.6738 0.71197 17.0135 0.726019 16.3747 0.868164L16.4833 1.35623C17.0576 1.22844 17.6511 1.21581 18.2302 1.31906L18.318 0.826822ZM63.7987 51.2648L47.0471 68.576L47.4064 68.9237L64.158 51.6125L63.7987 51.2648ZM47.0024 68.6395L44.3222 74.0878L44.7708 74.3085L47.4511 68.8602L47.0024 68.6395ZM44.6637 74.419L50.0262 71.5732L49.7918 71.1315L44.4293 73.9773L44.6637 74.419ZM50.0882 71.5266L62.9978 58.2457L62.6393 57.8972L49.7297 71.1781L50.0882 71.5266ZM62.5723 58.0284L58.3543 82.1511L58.8468 82.2372L63.0648 58.1145L62.5723 58.0284ZM58.3542 82.1513C58.2934 82.5009 58.0972 82.8115 57.8093 83.0149L58.0979 83.4232C58.4943 83.1431 58.7635 82.7163 58.8468 82.237L58.3542 82.1513ZM57.8094 83.0149C57.5216 83.2183 57.1656 83.298 56.8197 83.2371L56.7329 83.7295C57.2104 83.8137 57.7015 83.7034 58.0979 83.4232L57.8094 83.0149ZM56.8201 83.2371L5.49689 74.1139L5.40938 74.6062L56.7325 83.7294L56.8201 83.2371ZM5.49715 74.114C5.15184 74.0522 4.84449 73.855 4.64286 73.5649L4.2323 73.8503C4.50934 74.2488 4.93246 74.5209 5.40912 74.6062L5.49715 74.114ZM4.64286 73.5649C4.4412 73.2748 4.36195 72.9157 4.42284 72.5665L3.93028 72.4806C3.84681 72.9592 3.95531 73.4518 4.2323 73.8503L4.64286 73.5649ZM4.42282 72.5666L16.1445 5.53084L15.652 5.44472L3.9303 72.4805L4.42282 72.5666ZM16.1445 5.53063C16.2054 5.18097 16.4016 4.87043 16.6894 4.66702L16.4009 4.25869C16.0045 4.53879 15.7353 4.96561 15.6519 5.44493L16.1445 5.53063ZM16.6894 4.66702C16.9772 4.46365 17.3332 4.38385 17.6791 4.44483L17.7659 3.95243C17.2883 3.86824 16.7973 3.97853 16.4009 4.25869L16.6894 4.66702ZM17.6787 4.44477L69.0019 13.568L69.0894 13.0757L17.7662 3.95249L17.6787 4.44477ZM69.0016 13.5679C69.3469 13.6297 69.6543 13.827 69.8559 14.117L70.2665 13.8316C69.9894 13.4331 69.5663 13.161 69.0897 13.0757L69.0016 13.5679ZM69.8559 14.117C70.0576 14.4071 70.1368 14.7662 70.0759 15.1154L70.5685 15.2013C70.652 14.7227 70.5435 14.2301 70.2665 13.8316L69.8559 14.117ZM70.0759 15.1153L63.7321 51.3956L64.2246 51.4817L70.5685 15.2014L70.0759 15.1153ZM59.1227 22.8379C59.0681 23.1469 58.9075 23.4265 58.6692 23.6279L58.992 24.0097C59.3199 23.7326 59.5403 23.3485 59.6151 22.9248L59.1227 22.8379ZM59.1122 22.3155C59.1497 22.4872 59.1533 22.6647 59.1227 22.8378L59.615 22.9249C59.657 22.6875 59.6521 22.4442 59.6007 22.2087L59.1122 22.3155ZM58.904 21.8373C59.0039 21.9813 59.0747 22.1438 59.1122 22.3155L59.6007 22.2087C59.5492 21.9732 59.4521 21.7502 59.3148 21.5523L58.904 21.8373ZM58.5303 21.4762C58.6771 21.5706 58.8041 21.6933 58.904 21.8373L59.3148 21.5523C59.1776 21.3545 59.0029 21.1857 58.8007 21.0556L58.5303 21.4762ZM58.0484 21.287C58.2197 21.3176 58.3835 21.3818 58.5303 21.4762L58.8007 21.0556C58.5984 20.9256 58.3726 20.8369 58.1362 20.7948L58.0484 21.287ZM25.3461 15.472L58.0485 21.287L58.136 20.7947L25.4336 14.9797L25.3461 15.472ZM24.3559 15.693C24.644 15.4899 25.0002 15.4105 25.3461 15.472L25.4335 14.9797C24.956 14.8949 24.4647 15.0046 24.0679 15.2843L24.3559 15.693ZM23.8099 16.5561C23.8711 16.2065 24.0678 15.8961 24.3559 15.693L24.0679 15.2843C23.6711 15.564 23.4013 15.9905 23.3174 16.4698L23.8099 16.5561ZM24.0299 17.5561C23.8279 17.2655 23.7486 16.9058 23.8099 16.5561L23.3174 16.4698C23.2334 16.9491 23.3419 17.4425 23.6194 17.8416L24.0299 17.5561ZM24.8859 18.1054C24.5399 18.0439 24.2319 17.8466 24.0299 17.5561L23.6194 17.8416C23.897 18.2407 24.321 18.5129 24.7984 18.5977L24.8859 18.1054ZM57.5884 23.9204L24.8859 18.1054L24.7984 18.5976L57.5008 24.4127L57.5884 23.9204ZM57.8206 23.9404C57.7424 23.9403 57.6643 23.9336 57.5873 23.9202L57.5019 24.4129C57.6071 24.4311 57.7136 24.4403 57.8203 24.4404L57.8206 23.9404ZM58.6692 23.6279C58.431 23.8292 58.1304 23.9397 57.8199 23.9404L57.8209 24.4404C58.2496 24.4395 58.6641 24.2869 58.992 24.0097L58.6692 23.6279ZM56.9398 35.3373C56.8858 35.6475 56.725 35.9283 56.486 36.1304L56.8089 36.5122C57.1378 36.234 57.3584 35.8483 57.4324 35.423L56.9398 35.3373ZM56.7234 34.3415C56.9231 34.6314 57.001 34.9892 56.9398 35.3369L57.4323 35.4234C57.5161 34.9468 57.4094 34.456 57.1352 34.0579L56.7234 34.3415ZM55.8755 33.7894C56.219 33.8535 56.5239 34.0517 56.7234 34.3415L57.1352 34.0579C56.861 33.6597 56.4413 33.3863 55.9672 33.2979L55.8755 33.7894ZM23.1751 27.9747L55.8775 33.7898L55.9651 33.2975L23.2626 27.4824L23.1751 27.9747ZM22.6584 27.986C22.8282 27.9481 23.0038 27.9443 23.1751 27.9747L23.2626 27.4824C23.0262 27.4404 22.7838 27.4458 22.5495 27.498L22.6584 27.986ZM22.185 28.1957C22.3276 28.0952 22.4885 28.0239 22.6584 27.986L22.5495 27.498C22.3151 27.5503 22.0934 27.6486 21.8969 27.787L22.185 28.1957ZM21.8268 28.5723C21.9206 28.4242 22.0423 28.2963 22.185 28.1957L21.8969 27.787C21.7004 27.9255 21.5331 28.1015 21.4043 28.305L21.8268 28.5723ZM21.6389 29.0589C21.6692 28.8858 21.7331 28.7205 21.8268 28.5723L21.4043 28.305C21.2756 28.5084 21.188 28.7352 21.1464 28.9726L21.6389 29.0589ZM21.6502 29.5811C21.6124 29.4094 21.6085 29.232 21.6389 29.0589L21.1464 28.9726C21.1048 29.21 21.1101 29.4532 21.1619 29.6885L21.6502 29.5811ZM21.8589 30.0589C21.7589 29.915 21.6879 29.7527 21.6502 29.5811L21.1619 29.6886C21.2137 29.9239 21.311 30.1467 21.4484 30.3443L21.8589 30.0589ZM22.2329 30.4194C22.0861 30.3252 21.959 30.2027 21.8589 30.0589L21.4484 30.3443C21.5859 30.5419 21.7607 30.7105 21.963 30.8402L22.2329 30.4194ZM22.7149 30.6081C22.5436 30.5777 22.3798 30.5136 22.2329 30.4194L21.963 30.8402C22.1653 30.97 22.3911 31.0584 22.6275 31.1004L22.7149 30.6081ZM55.4016 36.4192L22.7149 30.6081L22.6274 31.1004L55.3141 36.9115L55.4016 36.4192ZM55.6326 36.4431C55.5574 36.4434 55.4824 36.4359 55.4088 36.4206L55.307 36.9101C55.4148 36.9325 55.5247 36.9436 55.6348 36.9431L55.6326 36.4431ZM56.486 36.1304C56.247 36.3325 55.9452 36.4431 55.6337 36.4431L55.6337 36.9431C56.0638 36.9431 56.4799 36.7904 56.8089 36.5122L56.486 36.1304ZM38.4216 44.9319C38.367 45.2415 38.2058 45.5215 37.9669 45.723L38.2892 46.1052C38.618 45.828 38.8391 45.4433 38.914 45.0189L38.4216 44.9319ZM38.652 45.2254H38.6678V44.7254H38.652V45.2254ZM38.1909 43.934C38.3906 44.2246 38.468 44.5833 38.4059 44.9315L38.8982 45.0193C38.9833 44.542 38.8772 44.05 38.6029 43.6508L38.1909 43.934ZM37.3416 43.3807C37.6857 43.4447 37.9912 43.6434 38.1909 43.934L38.6029 43.6508C38.3286 43.2516 37.9081 42.9775 37.433 42.8891L37.3416 43.3807ZM20.9963 40.4775L37.3436 43.381L37.431 42.8888L21.0837 39.9852L20.9963 40.4775ZM20.4537 40.4656C20.6297 40.4326 20.8104 40.4359 20.9851 40.4752L21.0949 39.9874C20.8539 39.9332 20.6045 39.9286 20.3617 39.9741L20.4537 40.4656ZM19.9611 40.6671C20.1102 40.567 20.2778 40.4985 20.4537 40.4656L20.3617 39.9741C20.1189 40.0196 19.8878 40.1141 19.6825 40.2519L19.9611 40.6671ZM19.5863 41.0479C19.6845 40.8966 19.812 40.7671 19.9611 40.6671L19.6825 40.2519C19.4772 40.3897 19.3018 40.5679 19.167 40.7756L19.5863 41.0479ZM19.3902 41.547C19.4214 41.3689 19.4882 41.1991 19.5864 41.0479L19.167 40.7756C19.0321 40.9834 18.9405 41.2164 18.8977 41.4606L19.3902 41.547ZM19.4047 42.0838C19.3639 41.9077 19.3589 41.725 19.3902 41.547L18.8977 41.4606C18.8549 41.7047 18.8616 41.9551 18.9176 42.1966L19.4047 42.0838ZM19.6275 42.5713C19.5213 42.4257 19.4455 42.2599 19.4047 42.0838L18.9176 42.1966C18.9736 42.4381 19.0776 42.6658 19.2235 42.8659L19.6275 42.5713ZM20.0222 42.9309C19.8679 42.8392 19.7336 42.7169 19.6275 42.5713L19.2235 42.8659C19.3693 43.066 19.5541 43.2343 19.7666 43.3607L20.0222 42.9309ZM20.5248 43.1052C20.3474 43.0819 20.1764 43.0227 20.0221 42.9309L19.7666 43.3607C19.9791 43.4871 20.2149 43.5688 20.4598 43.6009L20.5248 43.1052ZM36.8834 46.0145L20.5361 43.1069L20.4486 43.5992L36.7958 46.5067L36.8834 46.0145ZM37.116 46.0344C37.0375 46.0342 36.9592 46.0274 36.8819 46.0142L36.7974 46.507C36.9023 46.525 37.0084 46.5341 37.1148 46.5344L37.116 46.0344ZM37.9669 45.723C37.728 45.9244 37.4266 46.0345 37.1155 46.0344L37.1153 46.5344C37.5448 46.5346 37.9604 46.3825 38.2892 46.1052L37.9669 45.723ZM86.5196 27.8004L83.8438 30.5594L84.2027 30.9075L86.8785 28.1485L86.5196 27.8004ZM88.0453 27.1411C87.4695 27.1499 86.9207 27.387 86.5196 27.8003L86.8784 28.1485C87.1872 27.8304 87.6097 27.6478 88.053 27.6411L88.0453 27.1411ZM89.5904 27.7533C89.1769 27.3525 88.6211 27.1323 88.0453 27.1411L88.053 27.6411C88.4962 27.6343 88.9241 27.8038 89.2425 28.1123L89.5904 27.7533ZM90.2497 29.2791C90.2409 28.7033 90.0038 28.1545 89.5906 27.7534L89.2423 28.1122C89.5605 28.421 89.743 28.8434 89.7498 29.2867L90.2497 29.2791ZM89.6376 30.8242C90.0384 30.4107 90.2586 29.8549 90.2497 29.2791L89.7498 29.2867C89.7566 29.73 89.5871 30.1579 89.2785 30.4762L89.6376 30.8242ZM86.9618 33.5845L89.6375 30.8242L89.2785 30.4762L86.6028 33.2364L86.9618 33.5845ZM83.8491 30.9129L86.6082 33.5899L86.9564 33.231L84.1973 30.554L83.8491 30.9129Z" fill="black"/>
</svg>
