<svg width="28" height="29" viewBox="0 0 28 29" fill="none" xmlns="http://www.w3.org/2000/svg">
<path id="Vector" fill-rule="evenodd" clip-rule="evenodd" d="M14.1767 29C14.0974 29 14.0216 28.9961 13.9644 28.9936C13.9177 28.9974 13.8711 29 13.8244 29C12.1561 29 11.0419 28.1299 10.0584 27.3629C9.35372 26.8133 8.68872 26.2946 7.90938 26.1517C7.5354 26.0825 7.15691 26.0472 6.77771 26.0462C6.1162 26.0462 5.59237 26.1595 5.2097 26.2418C4.9752 26.292 4.7722 26.3358 4.6147 26.3358C4.45136 26.3358 4.25186 26.2959 4.16786 25.9818C4.10737 25.745 4.05445 25.5059 4.00919 25.265C3.89486 24.6896 3.81203 24.3383 3.61719 24.3048C1.52651 23.9483 0.291007 23.4245 0.0448393 22.7887C0.0195924 22.7255 0.0045868 22.658 0.000505702 22.5892C-0.00403757 22.4979 0.0221566 22.408 0.0740553 22.3367C0.125954 22.2654 0.199896 22.2178 0.281674 22.203C1.94185 21.9006 3.41886 20.9327 4.6707 19.3239C5.28088 18.5455 5.78762 17.6753 6.1757 16.7395C6.41604 16.1989 6.46387 15.733 6.31804 15.352C6.04854 14.6519 5.15603 14.3391 4.5657 14.1319C4.43202 14.0874 4.29973 14.0381 4.16903 13.9839C3.64636 13.7561 2.78535 13.2747 2.89969 12.6093C2.98369 12.1241 3.56469 11.7856 4.03486 11.7856C4.16553 11.7856 4.28103 11.8113 4.37786 11.8628C4.90986 12.137 5.38703 12.276 5.7977 12.276C6.3087 12.276 6.55604 12.061 6.61437 12.0005C6.59938 11.6928 6.58305 11.3852 6.56537 11.0777C6.44521 8.97208 6.29587 6.35421 6.90371 4.85092C8.71905 0.355228 12.5737 0.00643529 13.7112 0.00643529C13.8995 0.00449201 14.0877 0.00234692 14.2759 0C15.4169 0 19.2798 0.35008 21.0986 4.84835C21.7053 6.35163 21.5559 8.97337 21.4358 11.0803L21.4299 11.1807C21.414 11.4539 21.3992 11.7272 21.3856 12.0005C21.4416 12.0572 21.668 12.2541 22.1265 12.2734C22.5185 12.2567 22.9688 12.1189 23.4646 11.8615C23.6027 11.7958 23.7518 11.7634 23.9021 11.7663C24.0771 11.7663 24.2533 11.8049 24.4015 11.8718L24.4096 11.8757C24.8296 12.0404 25.105 12.3699 25.1108 12.7149C25.1166 13.0366 24.8996 13.5193 23.831 13.9839C23.7002 14.0384 23.5679 14.0882 23.4343 14.1332C22.844 14.3391 21.9526 14.6519 21.6831 15.352C21.5361 15.7317 21.5851 16.1989 21.8266 16.7382L21.8336 16.7562C21.9083 16.9493 23.7061 21.4733 27.7195 22.2018C27.801 22.2168 27.8747 22.2645 27.9264 22.3358C27.978 22.407 28.0041 22.4968 27.9995 22.5879C27.9956 22.6576 27.9806 22.726 27.9552 22.7899C27.7113 23.4219 26.4758 23.9457 24.3851 24.3022C24.188 24.3357 24.1051 24.6858 23.992 25.2585C23.9453 25.4953 23.8986 25.727 23.8333 25.9703C23.7715 26.2006 23.6361 26.3126 23.4191 26.3126H23.3865C23.1862 26.3047 22.9871 26.2767 22.7915 26.229C22.2753 26.1099 21.7496 26.0487 21.2223 26.0462C20.8548 26.0462 20.4756 26.081 20.0906 26.1517C19.3136 26.2933 18.6486 26.812 17.9439 27.3616C16.9593 28.13 15.8439 29 14.1767 29Z" fill="white"/>
</svg>
