<svg width="30" height="21" viewBox="0 0 30 21" fill="none" xmlns="http://www.w3.org/2000/svg">
<path d="M29.3379 3.28848C29.1659 2.65287 28.8302 2.0734 28.3644 1.60779C27.8985 1.14217 27.3188 0.806642 26.6829 0.634621C24.3548 0 14.985 0 14.985 0C14.985 0 5.6148 0.0192096 3.28672 0.65383C2.65079 0.825862 2.07105 1.16141 1.60522 1.62705C1.13939 2.09269 0.803734 2.67217 0.631674 3.30781C-0.0725178 7.44233 -0.345686 13.7424 0.65101 17.7115C0.823088 18.3471 1.15875 18.9266 1.62458 19.3922C2.09041 19.8578 2.67014 20.1934 3.30605 20.3654C5.63414 21 15.0041 21 15.0041 21C15.0041 21 24.374 21 26.702 20.3654C27.3379 20.1934 27.9177 19.8579 28.3835 19.3922C28.8494 18.9266 29.1851 18.3471 29.3572 17.7115C30.0999 13.5711 30.3288 7.27495 29.3379 3.28848Z" fill="white"/>
<path d="M12 15L20 10.5L12 6V15Z" fill="black"/>
</svg>
